<svg id="Layer_1" data-name="Layer 1" xmlns="http://www.w3.org/2000/svg" viewBox="0 0 664 65.5"><defs><style>.cls-1{fill:#48afef;}.cls-2{fill:#3179b5;}</style></defs><title>bg-waves</title><path class="cls-1" d="M3189,2508.78c-49.26-1.26-103.08,5.32-160.36,11.79,50.6-2,98.51-3.66,133.86-3.29,51,0.54,145.78,7.56,169.5,9.37v-12.78C3313.12,2513,3261.82,2510.64,3189,2508.78Z" transform="translate(-2668 -2466.5)"/><path class="cls-1" d="M2668,2513.51c13.78,2.43,62.18,10.24,129,12.9l2.83,0.1c-48.95-9.08-87.54-27-131.83-32.28v19.28Z" transform="translate(-2668 -2466.5)"/><path class="cls-1" d="M2799.83,2526.51a310.59,310.59,0,0,0,49.67,5.27c62.41,1.49,122.48-4.81,179.14-11.21C2944.75,2523.93,2853.48,2528.36,2799.83,2526.51Z" transform="translate(-2668 -2466.5)"/><path class="cls-2" d="M2668,2466.5v27.73c44.28,5.25,82.88,23.2,131.83,32.28,53.66,1.85,144.92-2.58,228.82-5.94,57.28-6.47,111.09-13,160.36-11.79,72.82,1.86,124.12,4.18,143,5.1V2466.5H2668Z" transform="translate(-2668 -2466.5)"/></svg>