<?xml version="1.0" encoding="utf-8"?>
<!-- Generator: Adobe Illustrator 20.0.0, SVG Export Plug-In . SVG Version: 6.00 Build 0)  -->
<svg version="1.1" id="Layer_1" xmlns="http://www.w3.org/2000/svg" xmlns:xlink="http://www.w3.org/1999/xlink" x="0px" y="0px"
	 viewBox="0 0 122.3 110" style="enable-background:new 0 0 122.3 110;" xml:space="preserve">
<style type="text/css">
	.st0{fill:#FFFFFF;}
</style>
<g>
	<polygon class="st0" points="50.2,53.2 44.9,57.8 57.6,72 57.6,71.9 57.6,72 80.4,48.9 76.3,43.5 57.8,58.7 	"/>
	<path class="st0" d="M61.2,4.4C32.7,4.4,9.6,27.5,9.6,55.9c0,28.5,23.1,51.6,51.6,51.6c28.5,0,51.6-23.1,51.6-51.6
		C112.8,27.5,89.7,4.4,61.2,4.4z M61.2,87.7c-29.9,0-32-50.6-32-50.6l32-13.6l32,13.6C93.2,37.2,91.1,87.7,61.2,87.7z"/>
</g>
</svg>
