<?xml version="1.0" encoding="utf-8"?>
<!-- Generator: Adobe Illustrator 20.0.0, SVG Export Plug-In . SVG Version: 6.00 Build 0)  -->
<svg version="1.1" id="Layer_1" xmlns="http://www.w3.org/2000/svg" xmlns:xlink="http://www.w3.org/1999/xlink" x="0px" y="0px"
	 viewBox="0 0 122.3 110" style="enable-background:new 0 0 122.3 110;" xml:space="preserve">
<style type="text/css">
	.st0{fill:#FFFFFF;}
</style>
<path class="st0" d="M61.4,4.4C32.9,4.4,9.9,27.5,9.9,55.9s23.1,51.6,51.6,51.6S113,84.4,113,55.9S89.9,4.4,61.4,4.4z M52.4,54
	c0-1.3,1-1.7,2.3-1.7H86c1.3,0,2.5,0.4,2.5,1.7v4.5c0,1.3-1.1,2.8-2.5,2.8H54.7c-1.3,0-2.3-1.5-2.3-2.8V54z M41.3,43.3h-4.5
	c-1.3,0-2.4-1.4-2.4-2.7v-4.5c0-1.3,1.1-1.8,2.4-1.8h4.5c1.3,0,2.1,0.5,2.1,1.8v4.5C43.4,41.9,42.7,43.3,41.3,43.3z M43.4,54v4.5
	c0,1.3-0.8,2.8-2.1,2.8h-4.5c-1.3,0-2.4-1.5-2.4-2.8V54c0-1.3,1.1-1.7,2.4-1.7h4.5C42.7,52.3,43.4,52.6,43.4,54z M43.4,77
	c0,1.2-1,2.2-2.2,2.2h-4.5c-1.2,0-2.2-1-2.2-2.2v-4.5c0-1.2,1-2.2,2.2-2.2h4.5c1.2,0,2.2,1,2.2,2.2V77z M88.4,77
	c0,1.2-1,2.2-2.2,2.2H54.7c-1.2,0-2.2-1-2.2-2.2v-4.5c0-1.2,1-2.2,2.2-2.2h31.5c1.2,0,2.2,1,2.2,2.2V77z M88.4,40.6
	c0,1.3-1.1,2.7-2.5,2.7H54.7c-1.3,0-2.3-1.4-2.3-2.7v-4.5c0-1.3,1-1.8,2.3-1.8H86c1.3,0,2.5,0.5,2.5,1.8V40.6z"/>
</svg>
