<?xml version="1.0" encoding="utf-8"?>
<!-- Generator: Adobe Illustrator 20.0.0, SVG Export Plug-In . SVG Version: 6.00 Build 0)  -->
<svg version="1.1" id="Layer_1" xmlns="http://www.w3.org/2000/svg" xmlns:xlink="http://www.w3.org/1999/xlink" x="0px" y="0px"
	 viewBox="0 0 56.7 56.7" style="enable-background:new 0 0 56.7 56.7;" xml:space="preserve">
<style type="text/css">
	.st0{fill:#367AB3;}
</style>
<path class="st0" d="M29,10c-10.5,0.1-18.8,8.7-18.7,19.2C10.5,39.6,19,48,29.5,47.8c10.5-0.1,18.8-8.7,18.7-19.2
	C48,18.2,39.5,9.8,29,10L29,10z M28.9,40.4l-0.1,0c-1.6,0-2.7-1.2-2.7-2.8c0-1.6,1.2-2.7,2.8-2.7l0.1,0c1.7,0,2.8,1.2,2.7,2.9
	C31.7,39.3,30.5,40.4,28.9,40.4L28.9,40.4z M35.7,27c-0.4,0.5-1.2,1.2-2.3,2l-1.2,0.8c-0.6,0.5-1,1-1.2,1.4C31,31.6,31,31.7,31,32.4
	l0,0.2h-4.4l0-0.4c0.1-1.5,0.1-2.4,0.7-3.2c1-1.2,3.2-2.6,3.3-2.6c0.3-0.2,0.6-0.5,0.8-0.8c0.5-0.6,0.7-1.1,0.7-1.6
	c0-0.7-0.2-1.3-0.6-1.9c-0.4-0.5-1.1-0.8-2.2-0.8c-1.1,0-1.8,0.3-2.2,1c-0.4,0.7-0.7,1.4-0.7,2.2v0.2h-4.5l0-0.2
	c0.1-2.8,1.1-4.8,3-6c1.2-0.7,2.6-1.1,4.3-1.1c2.2,0,4.1,0.5,5.5,1.6c1.5,1.1,2.2,2.7,2.2,4.8C36.8,24.9,36.4,26,35.7,27L35.7,27z
	 M35.7,27"/>
</svg>
