<?xml version="1.0" encoding="utf-8"?>
<!-- Generator: Adobe Illustrator 20.0.0, SVG Export Plug-In . SVG Version: 6.00 Build 0)  -->
<svg version="1.1" id="Layer_1" xmlns="http://www.w3.org/2000/svg" xmlns:xlink="http://www.w3.org/1999/xlink" x="0px" y="0px"
	 viewBox="0 0 122.3 110" style="enable-background:new 0 0 122.3 110;" xml:space="preserve">
<style type="text/css">
	.st0{fill:#FFFFFF;}
</style>
<g>
	<path class="st0" d="M61.3,6.3c-27.4,0-49.7,22.2-49.7,49.7c0,27.4,22.2,49.7,49.7,49.7c27.4,0,49.7-22.2,49.7-49.7
		C110.9,28.5,88.7,6.3,61.3,6.3z M48.3,33.3L58.8,23c0.7-0.7,1.6-0.8,2.5-0.8h0.1c0.9,0,1.8,0.1,2.5,0.8l10.5,10.4
		c1.4,1.4,1.4,3.5,0,4.9c-0.7,0.7-1.6,1-2.5,1c-0.9,0-1.5-0.4-2.1-1l-4.3-4.7v18.8c0,1.9-2.1,3.5-4,3.5c-1.9,0-4-1.6-4-3.5V33.8
		l-4.3,4.4c-0.7,0.7-1.5,1-2.4,1c-0.9,0-1.8-0.3-2.5-1C46.9,36.9,47,34.6,48.3,33.3z M87.4,76.3h0.8c0,5-4.7,8-10.6,8H44.9
		c-5.9,0-10.4-3.9-10.4-8.7V52.7c0-4.7,4.5-7.5,10.4-7.5h4.4c0.5,0,1,0.1,1.5,0.1c0.5,0,1-0.1,1.5-0.1h0.1v6h-7.6
		c-2.4,0-3.4,1.1-3.4,1.5v22.9c0,0.4,1,1.7,3.4,1.7h32.8c2.4,0,3.8-1.3,3.8-1.7V52.7c0-0.4-1.3-1.5-3.8-1.5h-8.2v-6h0.9
		c0.5,0,1,0.1,1.5,0.1c0.5,0,1-0.1,1.5-0.1h4.3c5.9,0,9.8,2.7,9.8,7.5V76.3z"/>
</g>
</svg>
