<?xml version="1.0" encoding="utf-8"?>
<!-- Generator: Adobe Illustrator 20.0.0, SVG Export Plug-In . SVG Version: 6.00 Build 0)  -->
<svg version="1.1" id="Layer_1" xmlns="http://www.w3.org/2000/svg" xmlns:xlink="http://www.w3.org/1999/xlink" x="0px" y="0px"
	 viewBox="0 0 122.3 110" style="enable-background:new 0 0 122.3 110;" xml:space="preserve">
<style type="text/css">
	.st0{fill:#FFFFFF;}
</style>
<g>
	<path class="st0" d="M61.5,6.1C34,6.1,11.7,28.4,11.7,55.9c0,27.5,22.3,49.8,49.8,49.8c27.5,0,49.8-22.3,49.8-49.8
		C111.3,28.4,89,6.1,61.5,6.1z M61.7,79.3H40.1c0-15,13.7-15.5,16.7-19.5l0.3-1.8c-4.3-2.2-7.3-7.3-7.3-13.4c0-8,5.2-14.5,11.6-14.5
		s11.6,6.5,11.6,14.5c0,6-3,11.2-7.2,13.4l0.4,2c3.3,3.9,16.5,4.3,16.5,19.3H61.7z"/>
</g>
</svg>
