<?xml version="1.0" encoding="utf-8"?>
<!-- Generator: Adobe Illustrator 20.0.0, SVG Export Plug-In . SVG Version: 6.00 Build 0)  -->
<svg version="1.1" id="Layer_1" xmlns="http://www.w3.org/2000/svg" xmlns:xlink="http://www.w3.org/1999/xlink" x="0px" y="0px"
	 viewBox="0 0 122.3 110" style="enable-background:new 0 0 122.3 110;" xml:space="preserve">
<style type="text/css">
	.st0{fill:#FFFFFF;}
</style>
<g>
	<path class="st0" d="M61,44.5c-6.2,0-11.2,5-11.2,11.2c0,6.2,5,11.2,11.2,11.2c6.2,0,11.2-5,11.2-11.2C72.2,49.5,67.2,44.5,61,44.5
		z"/>
	<path class="st0" d="M61,4.4C32.5,4.4,9.4,27.5,9.4,55.9c0,28.5,23.1,51.6,51.6,51.6c28.5,0,51.6-23.1,51.6-51.6
		C112.5,27.5,89.4,4.4,61,4.4z M94.3,59.6c-0.1,1-1,1.7-2,1.6l-0.4,0c-3,0-5.7,1.8-6.9,4.6c-1.2,2.9-0.5,6.3,1.9,8.4
		c0.7,0.7,0.8,1.8,0.2,2.6c-1.6,2-3.4,3.8-5.4,5.4c-0.8,0.6-1.9,0.5-2.5-0.2c-2-2.2-5.6-3-8.3-1.9c-2.9,1.2-4.7,4.1-4.6,7.2
		c0,1-0.7,1.8-1.7,1.9c-1.2,0.1-2.5,0.2-3.7,0.2c-1.3,0-2.6-0.1-3.9-0.2c-1-0.1-1.7-1-1.6-2c0.2-3.1-1.6-6.1-4.5-7.3
		c-2.8-1.2-6.4-0.3-8.4,1.9c-0.7,0.7-1.8,0.8-2.6,0.2c-2-1.6-3.8-3.4-5.3-5.4c-0.6-0.8-0.5-1.9,0.2-2.5c2.3-2.1,3.1-5.4,1.9-8.3
		c-1.2-2.9-4-4.7-6.9-4.6c-1,0-2.1-0.7-2.2-1.7c-0.3-2.5-0.3-5.1,0-7.6c0.1-1,0.9-1.7,1.9-1.7c3.3,0,6.2-1.8,7.3-4.5
		c1.2-2.9,0.5-6.3-1.9-8.4c-0.7-0.7-0.8-1.8-0.2-2.6c1.6-2,3.4-3.8,5.4-5.4c0.8-0.6,1.9-0.5,2.5,0.2c2,2.2,5.6,3,8.3,1.9
		c2.9-1.2,4.7-4.1,4.6-7.2c0-1,0.7-1.8,1.7-1.9c2.5-0.3,5-0.3,7.6,0c1,0.1,1.7,1,1.6,2c-0.2,3.1,1.6,6.1,4.5,7.3
		c2.8,1.2,6.4,0.3,8.4-1.9c0.7-0.7,1.8-0.8,2.6-0.2c2,1.6,3.7,3.4,5.3,5.4c0.6,0.8,0.5,1.9-0.2,2.5c-2.3,2.1-3,5.4-1.9,8.3
		c1.1,2.8,3.9,4.6,7,4.6c1,0,2.1,0.7,2.2,1.7C94.6,54.5,94.6,57,94.3,59.6z"/>
</g>
</svg>
