<?xml version="1.0" encoding="utf-8"?>
<!-- Generator: Adobe Illustrator 20.0.0, SVG Export Plug-In . SVG Version: 6.00 Build 0)  -->
<svg version="1.1" id="Layer_1" xmlns="http://www.w3.org/2000/svg" xmlns:xlink="http://www.w3.org/1999/xlink" x="0px" y="0px"
	 viewBox="0 0 283.5 283.5" style="enable-background:new 0 0 283.5 283.5;" xml:space="preserve">
<style type="text/css">
	.st0{fill:#FFFFFF;}
</style>
<g>
	<path class="st0" d="M142.3,92.3c-27.4,0-49.7,22.2-49.7,49.7c0,27.4,22.2,49.7,49.7,49.7c27.4,0,49.7-22.2,49.7-49.7
		C191.9,114.5,169.7,92.3,142.3,92.3z M129.3,119.3l10.5-10.4c0.7-0.7,1.6-0.9,2.5-0.9h0.1c0.9,0,1.8,0.2,2.5,0.9l10.5,10.4
		c1.4,1.4,1.4,3.6,0,4.9c-0.7,0.7-1.6,1-2.5,1c-0.9,0-1.2-0.4-1.9-1l-4-4.6v18.8c0,1.9-2.1,3.5-4,3.5c-1.9,0-4-1.6-4-3.5v-18.6
		l-4.5,4.4c-0.7,0.7-1.7,1-2.6,1c-0.9,0-1.8-0.3-2.5-1C128,122.9,128,120.6,129.3,119.3z M169,162h0.3c0,5-4.7,8-10.6,8h-32.8
		c-5.9,0-9.9-3.7-9.9-8.4v-22.9c0-4.7,3.9-7.7,9.9-7.7h4.4c0.5,0,1,0.1,1.5,0.1c0.5,0,1-0.1,1.5-0.1h0.6v6h-8.1
		c-2.4,0-2.9,1.3-2.9,1.7v22.9c0,0.4,0.5,1.4,2.9,1.4h32.8c2.4,0,4.3-1,4.3-1.4v-22.9c0-0.4-1.9-1.7-4.3-1.7H151v-6h0.4
		c0.5,0,1,0.1,1.5,0.1c0.5,0,1-0.1,1.5-0.1h4.3c5.9,0,10.3,3,10.3,7.7V162z"/>
</g>
</svg>
